<?xml version="1.0" encoding="UTF-8"?>
<!DOCTYPE svg PUBLIC "-//W3C//DTD SVG 1.1//EN" "http://www.w3.org/Graphics/SVG/1.1/DTD/svg11.dtd">
<svg xmlns="http://www.w3.org/2000/svg" version="1.1" width="100px" height="104px" style="shape-rendering:geometricPrecision; text-rendering:geometricPrecision; image-rendering:optimizeQuality; fill-rule:evenodd; clip-rule:evenodd" xmlns:xlink="http://www.w3.org/1999/xlink"> 
<g><path style="opacity:1" fill="#fbd1e9" d="M -0.5,-0.5 C 3.16667,-0.5 6.83333,-0.5 10.5,-0.5C 7.68516,14.5974 8.35183,29.5974 12.5,44.5C 10.412,46.3356 9.0787,48.6689 8.5,51.5C 7.47489,52.3739 6.80822,53.5405 6.5,55C 7.30686,58.8162 7.97353,62.6496 8.5,66.5C 8.15746,68.2252 7.15746,68.7252 5.5,68C 6.95608,67.5774 7.45608,66.7441 7,65.5C 6.58605,65.9574 6.08605,66.2907 5.5,66.5C 4.75675,65.0921 3.92342,63.7588 3,62.5C 2.66667,62.8333 2.33333,63.1667 2,63.5C 1.66667,60.1667 1.33333,56.8333 1,53.5C 0.500072,69.4965 0.333406,85.4965 0.5,101.5C 0.166667,101.5 -0.166667,101.5 -0.5,101.5C -0.5,84.8333 -0.5,68.1667 -0.5,51.5C 3.25064,48.2531 6.91731,44.7531 10.5,41C 6.9681,36.6398 3.30143,32.4732 -0.5,28.5C -0.5,18.8333 -0.5,9.16667 -0.5,-0.5 Z"/></g>
<g><path style="opacity:1" fill="#f8c6e0" d="M 18.5,-0.5 C 25.5,-0.5 32.5,-0.5 39.5,-0.5C 41.5,2.16667 43.5,4.83333 45.5,7.5C 44.1938,8.46739 43.5271,9.80072 43.5,11.5C 41.8333,11.5 40.1667,11.5 38.5,11.5C 35.786,11.75 33.1194,11.9167 30.5,12C 26.9696,7.30455 22.9696,3.13788 18.5,-0.5 Z"/></g>
<g><path style="opacity:1" fill="#98cef5" d="M 39.5,-0.5 C 51.5,-0.5 63.5,-0.5 75.5,-0.5C 73.7484,1.24595 72.4151,3.24595 71.5,5.5C 69.3702,7.12706 67.3702,8.96039 65.5,11C 60.5111,11.4993 55.5111,11.6659 50.5,11.5C 50.6162,8.08968 48.9496,6.75635 45.5,7.5C 43.5,4.83333 41.5,2.16667 39.5,-0.5 Z"/></g>
<g><path style="opacity:1" fill="#fcc1d1" d="M 84.5,-0.5 C 89.5,-0.5 94.5,-0.5 99.5,-0.5C 99.5,6.83333 99.5,14.1667 99.5,21.5C 95.55,17.2129 91.55,12.8795 87.5,8.5C 86.9583,5.32732 85.9583,2.32732 84.5,-0.5 Z"/></g>
<g><path style="opacity:1" fill="#363433" d="M 75.5,-0.5 C 76.1667,-0.5 76.8333,-0.5 77.5,-0.5C 75.8333,1.5 74.1667,3.5 72.5,5.5C 72.1667,5.5 71.8333,5.5 71.5,5.5C 72.4151,3.24595 73.7484,1.24595 75.5,-0.5 Z"/></g>
<g><path style="opacity:1" fill="#f7f7f8" d="M 77.5,-0.5 C 77.8333,-0.5 78.1667,-0.5 78.5,-0.5C 78.4142,0.495904 78.7476,1.32924 79.5,2C 76.3756,4.72625 75.709,8.05959 77.5,12C 77.1918,13.4595 76.5251,14.6261 75.5,15.5C 75.1667,15.5 74.8333,15.5 74.5,15.5C 74.9234,14.7354 75.2568,13.9021 75.5,13C 73.8003,10.7691 72.8003,8.26911 72.5,5.5C 74.1667,3.5 75.8333,1.5 77.5,-0.5 Z"/></g>
<g><path style="opacity:1" fill="#332b2c" d="M 81.5,-0.5 C 82.5,-0.5 83.5,-0.5 84.5,-0.5C 85.9583,2.32732 86.9583,5.32732 87.5,8.5C 87.5,14.1667 87.5,19.8333 87.5,25.5C 86.8333,25.5 86.5,25.1667 86.5,24.5C 86.8128,20.9581 86.4794,17.6248 85.5,14.5C 86.1827,8.89716 84.8493,3.89716 81.5,-0.5 Z"/></g>
<g><path style="opacity:1" fill="#f0f1f1" d="M 13.5,-0.5 C 14.5,-0.5 15.5,-0.5 16.5,-0.5C 18.1667,1.83333 20.1667,3.83333 22.5,5.5C 21.6004,8.09723 22.267,10.4306 24.5,12.5C 24.1373,13.1835 23.8039,13.8501 23.5,14.5C 23.5,14.8333 23.5,15.1667 23.5,15.5C 21.8333,16.8333 20.1667,18.1667 18.5,19.5C 19.0084,17.1346 19.6751,14.8013 20.5,12.5C 19.369,9.74474 17.7024,7.41141 15.5,5.5C 13.7988,6.80204 12.6322,8.46871 12,10.5C 11.51,9.20677 11.3433,7.87344 11.5,6.5C 11.3939,3.92138 12.0605,1.58805 13.5,-0.5 Z"/></g>
<g><path style="opacity:1" fill="#f7b2bc" d="M 78.5,-0.5 C 79.5,-0.5 80.5,-0.5 81.5,-0.5C 84.8493,3.89716 86.1827,8.89716 85.5,14.5C 84.7851,18.615 83.7851,22.7817 82.5,27C 82.8618,28.4343 83.5285,29.6009 84.5,30.5C 84.5,30.8333 84.5,31.1667 84.5,31.5C 82.8819,34.1709 82.2153,37.1709 82.5,40.5C 81.5,40.1667 80.8333,39.5 80.5,38.5C 82.1661,30.1824 80.4994,22.5157 75.5,15.5C 76.5251,14.6261 77.1918,13.4595 77.5,12C 75.709,8.05959 76.3756,4.72625 79.5,2C 78.7476,1.32924 78.4142,0.495904 78.5,-0.5 Z"/></g>
<g><path style="opacity:1" fill="#b69f83" d="M 22.5,5.5 C 24.6,8.10413 26.9334,10.6041 29.5,13C 27.4817,13.5046 25.4817,14.0046 23.5,14.5C 23.8039,13.8501 24.1373,13.1835 24.5,12.5C 22.267,10.4306 21.6004,8.09723 22.5,5.5 Z"/></g>
<g><path style="opacity:1" fill="#b09980" d="M 71.5,5.5 C 71.8333,5.5 72.1667,5.5 72.5,5.5C 72.8003,8.26911 73.8003,10.7691 75.5,13C 75.2568,13.9021 74.9234,14.7354 74.5,15.5C 71.8563,14.5067 69.1897,13.5067 66.5,12.5C 68.6049,10.4084 70.2716,8.07511 71.5,5.5 Z"/></g>
<g><path style="opacity:1" fill="#f3b1bb" d="M 18.5,19.5 C 15.9676,24.9019 14.301,30.5686 13.5,36.5C 12.1127,34.1234 11.2794,31.4568 11,28.5C 10.1782,20.9882 10.3448,13.6549 11.5,6.5C 11.3433,7.87344 11.51,9.20677 12,10.5C 12.6322,8.46871 13.7988,6.80204 15.5,5.5C 17.7024,7.41141 19.369,9.74474 20.5,12.5C 19.6751,14.8013 19.0084,17.1346 18.5,19.5 Z"/></g>
<g><path style="opacity:1" fill="#40333c" d="M 71.5,5.5 C 70.2716,8.07511 68.6049,10.4084 66.5,12.5C 69.1897,13.5067 71.8563,14.5067 74.5,15.5C 74.8333,15.5 75.1667,15.5 75.5,15.5C 80.4994,22.5157 82.1661,30.1824 80.5,38.5C 79.6184,36.6162 78.1184,35.2829 76,34.5C 74.4441,29.3882 73.4441,24.3882 73,19.5C 72.3779,23.0286 72.5446,26.5286 73.5,30C 73.6125,31.6624 72.9458,32.8291 71.5,33.5C 69.6147,32.3906 67.6147,31.5573 65.5,31C 59.4121,31.1256 53.7455,30.2923 48.5,28.5C 56.3249,26.6793 58.3249,22.1793 54.5,15C 52.788,13.2491 50.788,12.5825 48.5,13C 49.056,13.3826 49.3893,13.8826 49.5,14.5C 49.6716,15.4916 49.3382,16.1583 48.5,16.5C 47.9517,13.9162 46.285,12.9162 43.5,13.5C 41.8333,12.8333 40.1667,12.1667 38.5,11.5C 40.1667,11.5 41.8333,11.5 43.5,11.5C 43.5271,9.80072 44.1938,8.46739 45.5,7.5C 48.9496,6.75635 50.6162,8.08968 50.5,11.5C 55.5111,11.6659 60.5111,11.4993 65.5,11C 67.3702,8.96039 69.3702,7.12706 71.5,5.5 Z"/></g>
<g><path style="opacity:1" fill="#41353e" d="M 16.5,-0.5 C 17.1667,-0.5 17.8333,-0.5 18.5,-0.5C 22.9696,3.13788 26.9696,7.30455 30.5,12C 33.1194,11.9167 35.786,11.75 38.5,11.5C 40.1667,12.1667 41.8333,12.8333 43.5,13.5C 42.8333,14.5 42.1667,15.5 41.5,16.5C 39.9735,17.4919 39.3068,18.9919 39.5,21C 39.3932,23.2206 40.0598,25.0539 41.5,26.5C 42.9955,28.345 44.6621,28.6783 46.5,27.5C 46.3284,26.5084 46.6618,25.8417 47.5,25.5C 47.5569,26.609 47.8902,27.609 48.5,28.5C 44.1394,29.9447 39.6394,30.9447 35,31.5C 32.4138,29.0129 29.9138,29.1796 27.5,32C 28.8989,32.5946 30.2322,32.4279 31.5,31.5C 32.1667,32.1667 32.8333,32.8333 33.5,33.5C 45.5404,30.7003 57.5404,30.867 69.5,34C 59.1667,34.3333 48.8333,34.6667 38.5,35C 31.2534,36.9184 23.9201,37.9184 16.5,38C 19.8756,36.4967 23.209,34.9967 26.5,33.5C 24.5253,32.4221 22.692,32.7554 21,34.5C 20.6512,28.0591 21.8179,21.8924 24.5,16C 24.2716,15.6012 23.9382,15.4346 23.5,15.5C 23.5,15.1667 23.5,14.8333 23.5,14.5C 25.4817,14.0046 27.4817,13.5046 29.5,13C 26.9334,10.6041 24.6,8.10413 22.5,5.5C 20.1667,3.83333 18.1667,1.83333 16.5,-0.5 Z"/></g>
<g><path style="opacity:1" fill="#15161d" d="M 49.5,14.5 C 50.8799,14.9623 51.5466,15.9623 51.5,17.5C 50.5524,20.4227 49.2191,23.0893 47.5,25.5C 46.6618,25.8417 46.3284,26.5084 46.5,27.5C 45.0532,26.8658 44.3866,25.6991 44.5,24C 45.436,21.2951 46.7693,18.7951 48.5,16.5C 49.3382,16.1583 49.6716,15.4916 49.5,14.5 Z"/></g>
<g><path style="opacity:1" fill="#0e9deb" d="M 43.5,13.5 C 46.285,12.9162 47.9517,13.9162 48.5,16.5C 46.7693,18.7951 45.436,21.2951 44.5,24C 44.3866,25.6991 45.0532,26.8658 46.5,27.5C 44.6621,28.6783 42.9955,28.345 41.5,26.5C 42.3007,24.9582 42.634,23.2915 42.5,21.5C 43.494,19.6656 43.494,17.9989 42.5,16.5C 42.1667,16.5 41.8333,16.5 41.5,16.5C 42.1667,15.5 42.8333,14.5 43.5,13.5 Z"/></g>
<g><path style="opacity:1" fill="#625053" d="M 10.5,-0.5 C 11.5,-0.5 12.5,-0.5 13.5,-0.5C 12.0605,1.58805 11.3939,3.92138 11.5,6.5C 10.3448,13.6549 10.1782,20.9882 11,28.5C 11.2794,31.4568 12.1127,34.1234 13.5,36.5C 13.1568,38.4832 13.8235,39.8166 15.5,40.5C 14.3412,41.7403 13.3412,43.0736 12.5,44.5C 8.35183,29.5974 7.68516,14.5974 10.5,-0.5 Z"/></g>
<g><path style="opacity:1" fill="#1cbcdc" d="M 48.5,28.5 C 47.8902,27.609 47.5569,26.609 47.5,25.5C 49.2191,23.0893 50.5524,20.4227 51.5,17.5C 51.5466,15.9623 50.8799,14.9623 49.5,14.5C 49.3893,13.8826 49.056,13.3826 48.5,13C 50.788,12.5825 52.788,13.2491 54.5,15C 58.3249,22.1793 56.3249,26.6793 48.5,28.5 Z"/></g>
<g><path style="opacity:1" fill="#141a27" d="M 42.5,16.5 C 43.494,17.9989 43.494,19.6656 42.5,21.5C 41.7784,21.9175 41.2784,22.5842 41,23.5C 40.1668,20.829 40.6668,18.4957 42.5,16.5 Z"/></g>
<g><path style="opacity:1" fill="#175c9d" d="M 41.5,16.5 C 41.8333,16.5 42.1667,16.5 42.5,16.5C 40.6668,18.4957 40.1668,20.829 41,23.5C 41.2784,22.5842 41.7784,21.9175 42.5,21.5C 42.634,23.2915 42.3007,24.9582 41.5,26.5C 40.0598,25.0539 39.3932,23.2206 39.5,21C 39.3068,18.9919 39.9735,17.4919 41.5,16.5 Z"/></g>
<g><path style="opacity:1" fill="#18252c" d="M 53.5,16.5 C 56.1809,19.5199 56.0143,22.5199 53,25.5C 52.9565,22.5248 53.1231,19.5248 53.5,16.5 Z"/></g>
<g><path style="opacity:1" fill="#94cbf1" d="M 87.5,8.5 C 91.55,12.8795 95.55,17.2129 99.5,21.5C 99.5,35.8333 99.5,50.1667 99.5,64.5C 96.6082,61.729 93.9416,58.729 91.5,55.5C 89.8069,51.6278 87.4736,48.1278 84.5,45C 86.8572,43.78 86.5239,42.9467 83.5,42.5C 83.5,42.1667 83.5,41.8333 83.5,41.5C 83.5,40.8333 83.8333,40.5 84.5,40.5C 85.9007,35.6938 86.9007,30.6938 87.5,25.5C 87.5,19.8333 87.5,14.1667 87.5,8.5 Z"/></g>
<g><path style="opacity:1" fill="#ede8ea" d="M 85.5,14.5 C 86.4794,17.6248 86.8128,20.9581 86.5,24.5C 85.8333,26.5 85.1667,28.5 84.5,30.5C 83.5285,29.6009 82.8618,28.4343 82.5,27C 83.7851,22.7817 84.7851,18.615 85.5,14.5 Z"/></g>
<g><path style="opacity:1" fill="#a7d9fb" d="M -0.5,28.5 C 3.30143,32.4732 6.9681,36.6398 10.5,41C 6.91731,44.7531 3.25064,48.2531 -0.5,51.5C -0.5,43.8333 -0.5,36.1667 -0.5,28.5 Z"/></g>
<g><path style="opacity:1" fill="#31282b" d="M 23.5,15.5 C 23.9382,15.4346 24.2716,15.6012 24.5,16C 21.8179,21.8924 20.6512,28.0591 21,34.5C 22.692,32.7554 24.5253,32.4221 26.5,33.5C 23.209,34.9967 19.8756,36.4967 16.5,38C 23.9201,37.9184 31.2534,36.9184 38.5,35C 48.8333,34.6667 59.1667,34.3333 69.5,34C 57.5404,30.867 45.5404,30.7003 33.5,33.5C 32.8333,32.8333 32.1667,32.1667 31.5,31.5C 30.2322,32.4279 28.8989,32.5946 27.5,32C 29.9138,29.1796 32.4138,29.0129 35,31.5C 39.6394,30.9447 44.1394,29.9447 48.5,28.5C 53.7455,30.2923 59.4121,31.1256 65.5,31C 67.6147,31.5573 69.6147,32.3906 71.5,33.5C 72.9458,32.8291 73.6125,31.6624 73.5,30C 72.5446,26.5286 72.3779,23.0286 73,19.5C 73.4441,24.3882 74.4441,29.3882 76,34.5C 78.1184,35.2829 79.6184,36.6162 80.5,38.5C 75.5233,37.6727 70.5233,37.006 65.5,36.5C 63.0521,35.5269 60.3854,35.1936 57.5,35.5C 57.5,36.5 57.5,37.5 57.5,38.5C 56.7659,39.7079 56.4326,41.0413 56.5,42.5C 55.2106,44.248 53.7106,44.5814 52,43.5C 52.9396,33.2987 50.9396,32.9654 46,42.5C 45.3292,41.7476 44.4959,41.4142 43.5,41.5C 43.5,39.8333 43.5,38.1667 43.5,36.5C 41.2646,36.2053 39.2646,36.5386 37.5,37.5C 30.1986,38.7168 22.8652,39.7168 15.5,40.5C 13.8235,39.8166 13.1568,38.4832 13.5,36.5C 14.301,30.5686 15.9676,24.9019 18.5,19.5C 20.1667,18.1667 21.8333,16.8333 23.5,15.5 Z"/></g>
<g><path style="opacity:1" fill="#e9e4e5" d="M 84.5,31.5 C 84.5,34.5 84.5,37.5 84.5,40.5C 83.8333,40.5 83.5,40.8333 83.5,41.5C 82.8333,41.5 82.5,41.1667 82.5,40.5C 82.2153,37.1709 82.8819,34.1709 84.5,31.5 Z"/></g>
<g><path style="opacity:1" fill="#6b747b" d="M 86.5,24.5 C 86.5,25.1667 86.8333,25.5 87.5,25.5C 86.9007,30.6938 85.9007,35.6938 84.5,40.5C 84.5,37.5 84.5,34.5 84.5,31.5C 84.5,31.1667 84.5,30.8333 84.5,30.5C 85.1667,28.5 85.8333,26.5 86.5,24.5 Z"/></g>
<g><path style="opacity:1" fill="#bfafb8" d="M 43.5,41.5 C 44.4709,42.9621 44.1376,44.2954 42.5,45.5C 39.6543,43.3665 36.6543,43.0332 33.5,44.5C 32.8333,44.5 32.1667,44.5 31.5,44.5C 29.1667,44.5 26.8333,44.5 24.5,44.5C 24.6107,43.8826 24.944,43.3826 25.5,43C 29.4862,42.5012 33.4862,42.3345 37.5,42.5C 37.5,40.8333 37.5,39.1667 37.5,37.5C 39.2646,36.5386 41.2646,36.2053 43.5,36.5C 43.5,38.1667 43.5,39.8333 43.5,41.5 Z"/></g>
<g><path style="opacity:1" fill="#b5b0ac" d="M 65.5,36.5 C 64.1266,36.3433 62.7932,36.51 61.5,37C 62.8613,38.5843 63.528,40.4176 63.5,42.5C 62.5,42.5 61.5,42.5 60.5,42.5C 60.7989,40.396 60.4656,38.396 59.5,36.5C 58.8182,37.2427 58.1515,37.9094 57.5,38.5C 57.5,37.5 57.5,36.5 57.5,35.5C 60.3854,35.1936 63.0521,35.5269 65.5,36.5 Z"/></g>
<g><path style="opacity:1" fill="#ac957c" d="M 37.5,37.5 C 37.5,39.1667 37.5,40.8333 37.5,42.5C 33.4862,42.3345 29.4862,42.5012 25.5,43C 24.944,43.3826 24.6107,43.8826 24.5,44.5C 24.0825,45.2216 23.4158,45.7216 22.5,46C 22.2047,47.7137 22.5381,49.547 23.5,51.5C 22.5222,51.811 21.8555,52.4777 21.5,53.5C 23.1965,54.3636 24.3632,55.6969 25,57.5C 28.5633,58.0279 31.3967,59.6946 33.5,62.5C 28.8215,62.3342 24.1548,62.5008 19.5,63C 18.2899,64.0391 17.2899,65.2058 16.5,66.5C 14.6558,65.7961 14.1558,64.4628 15,62.5C 16.5843,61.1387 18.4176,60.472 20.5,60.5C 20.3036,57.3015 18.6369,55.3015 15.5,54.5C 12.5589,55.6058 10.3922,57.6058 9,60.5C 8.57059,58.3313 9.07059,56.3313 10.5,54.5C 10.0576,53.2613 9.39092,52.2613 8.5,51.5C 9.0787,48.6689 10.412,46.3356 12.5,44.5C 13.3412,43.0736 14.3412,41.7403 15.5,40.5C 22.8652,39.7168 30.1986,38.7168 37.5,37.5 Z"/></g>
<g><path style="opacity:1" fill="#534438" d="M 24.5,44.5 C 26.8333,44.5 29.1667,44.5 31.5,44.5C 31.5,47.8333 31.5,51.1667 31.5,54.5C 30.5233,51.7131 30.19,48.7131 30.5,45.5C 25.0936,44.7353 23.0936,47.0687 24.5,52.5C 23.8333,52.5 23.5,52.1667 23.5,51.5C 22.5381,49.547 22.2047,47.7137 22.5,46C 23.4158,45.7216 24.0825,45.2216 24.5,44.5 Z"/></g>
<g><path style="opacity:1" fill="#574d43" d="M 65.5,45.5 C 69.3205,44.7736 73.3205,44.7736 77.5,45.5C 77.9382,45.4346 78.2716,45.6012 78.5,46C 77.376,46.2492 76.376,46.7492 75.5,47.5C 76.7026,50.1599 76.7026,52.8265 75.5,55.5C 74.8333,55.8333 74.1667,56.1667 73.5,56.5C 74.4675,53.5547 74.6342,50.5547 74,47.5C 71.9592,46.5769 69.7925,46.2436 67.5,46.5C 67.1583,45.6618 66.4916,45.3284 65.5,45.5 Z"/></g>
<g><path style="opacity:1" fill="#2b2521" d="M 65.5,45.5 C 66.4916,45.3284 67.1583,45.6618 67.5,46.5C 67.9155,50.3751 67.4155,54.0418 66,57.5C 63.9074,54.9561 62.9074,51.9561 63,48.5C 62.6232,49.9423 61.7899,50.9423 60.5,51.5C 60.7616,48.3013 62.4283,46.3013 65.5,45.5 Z"/></g>
<g><path style="opacity:1" fill="#b19a7e" d="M 65.5,36.5 C 70.5233,37.006 75.5233,37.6727 80.5,38.5C 80.8333,39.5 81.5,40.1667 82.5,40.5C 82.5,41.1667 82.8333,41.5 83.5,41.5C 83.5,41.8333 83.5,42.1667 83.5,42.5C 83.6427,44.2624 83.3094,45.9291 82.5,47.5C 85.189,50.5198 87.8556,53.5198 90.5,56.5C 90.5,56.8333 90.5,57.1667 90.5,57.5C 90.5,59.8333 90.5,62.1667 90.5,64.5C 88.8333,64.5 87.1667,64.5 85.5,64.5C 84.1906,61.5493 81.8573,60.2159 78.5,60.5C 80.9379,59.1137 83.2712,59.447 85.5,61.5C 87.3962,57.8762 86.3962,55.8762 82.5,55.5C 79.434,56.2019 76.7674,57.7019 74.5,60C 75.448,60.4828 76.448,60.6495 77.5,60.5C 77.1583,61.3382 76.4916,61.6716 75.5,61.5C 74.8333,61.5 74.1667,61.5 73.5,61.5C 73.7036,59.3146 74.3702,57.3146 75.5,55.5C 76.7026,52.8265 76.7026,50.1599 75.5,47.5C 76.376,46.7492 77.376,46.2492 78.5,46C 78.2716,45.6012 77.9382,45.4346 77.5,45.5C 79.8397,43.5415 79.673,41.5415 77,39.5C 73.5217,39.9086 70.0217,40.2419 66.5,40.5C 65.5713,39.3112 65.238,37.9778 65.5,36.5 Z"/></g>
<g><path style="opacity:1" fill="#b49d80" d="M 56.5,42.5 C 56.0339,48.6592 56.7006,54.6592 58.5,60.5C 58.1445,61.5223 57.4778,62.189 56.5,62.5C 56.822,60.2776 56.1554,58.4443 54.5,57C 51.408,56.2642 48.408,56.4309 45.5,57.5C 45.1119,53.2809 44.1119,49.2809 42.5,45.5C 44.1376,44.2954 44.4709,42.9621 43.5,41.5C 44.4959,41.4142 45.3292,41.7476 46,42.5C 50.9396,32.9654 52.9396,33.2987 52,43.5C 53.7106,44.5814 55.2106,44.248 56.5,42.5 Z"/></g>
<g><path style="opacity:1" fill="#cfb894" d="M 31.5,54.5 C 31.8417,55.3382 32.5084,55.6716 33.5,55.5C 32.7095,56.4013 31.7095,57.0679 30.5,57.5C 28.5248,55.863 26.5248,54.1964 24.5,52.5C 23.0936,47.0687 25.0936,44.7353 30.5,45.5C 30.19,48.7131 30.5233,51.7131 31.5,54.5 Z"/></g>
<g><path style="opacity:1" fill="#453e40" d="M 83.5,42.5 C 86.5239,42.9467 86.8572,43.78 84.5,45C 87.4736,48.1278 89.8069,51.6278 91.5,55.5C 90.8333,55.5 90.5,55.8333 90.5,56.5C 87.8556,53.5198 85.189,50.5198 82.5,47.5C 83.3094,45.9291 83.6427,44.2624 83.5,42.5 Z"/></g>
<g><path style="opacity:1" fill="#c2aa81" d="M 67.5,46.5 C 69.7925,46.2436 71.9592,46.5769 74,47.5C 74.6342,50.5547 74.4675,53.5547 73.5,56.5C 71.8413,58.3427 69.6746,59.3427 67,59.5C 64.7298,58.1401 62.2298,57.4734 59.5,57.5C 59.5172,55.4352 59.8505,53.4352 60.5,51.5C 61.7899,50.9423 62.6232,49.9423 63,48.5C 62.9074,51.9561 63.9074,54.9561 66,57.5C 67.4155,54.0418 67.9155,50.3751 67.5,46.5 Z"/></g>
<g><path style="opacity:1" fill="#f8c4e0" d="M 8.5,66.5 C 10.8393,70.502 13.8393,73.8353 17.5,76.5C 18.326,78.2644 19.6593,79.5977 21.5,80.5C 21.8333,81.1667 22.1667,81.8333 22.5,82.5C 21.1667,83.1667 20.1667,84.1667 19.5,85.5C 14.3786,89.7451 12.712,95.0785 14.5,101.5C 9.83333,101.5 5.16667,101.5 0.5,101.5C 0.333406,85.4965 0.500072,69.4965 1,53.5C 1.33333,56.8333 1.66667,60.1667 2,63.5C 2.33333,63.1667 2.66667,62.8333 3,62.5C 3.92342,63.7588 4.75675,65.0921 5.5,66.5C 6.08605,66.2907 6.58605,65.9574 7,65.5C 7.45608,66.7441 6.95608,67.5774 5.5,68C 7.15746,68.7252 8.15746,68.2252 8.5,66.5 Z"/></g>
<g><path style="opacity:1" fill="#3f3635" d="M 8.5,51.5 C 9.39092,52.2613 10.0576,53.2613 10.5,54.5C 9.07059,56.3313 8.57059,58.3313 9,60.5C 10.3922,57.6058 12.5589,55.6058 15.5,54.5C 18.6369,55.3015 20.3036,57.3015 20.5,60.5C 18.4176,60.472 16.5843,61.1387 15,62.5C 14.1558,64.4628 14.6558,65.7961 16.5,66.5C 16.3284,67.4916 16.6618,68.1583 17.5,68.5C 17.0629,70.0744 16.0629,71.2411 14.5,72C 16.3008,72.3173 16.6341,72.984 15.5,74C 16.756,74.4169 17.4226,75.2502 17.5,76.5C 13.8393,73.8353 10.8393,70.502 8.5,66.5C 7.97353,62.6496 7.30686,58.8162 6.5,55C 6.80822,53.5405 7.47489,52.3739 8.5,51.5 Z"/></g>
<g><path style="opacity:1" fill="#312d28" d="M 31.5,44.5 C 32.1667,44.5 32.8333,44.5 33.5,44.5C 38.5122,46.7732 41.1789,50.7732 41.5,56.5C 38.854,57.5506 36.1873,58.0506 33.5,58C 35.2331,56.8111 36.8998,55.6444 38.5,54.5C 38.7009,51.2352 37.5343,48.5685 35,46.5C 34.7411,49.5867 34.2411,52.5867 33.5,55.5C 32.5084,55.6716 31.8417,55.3382 31.5,54.5C 31.5,51.1667 31.5,47.8333 31.5,44.5 Z"/></g>
<g><path style="opacity:1" fill="#c9b187" d="M 38.5,54.5 C 37.7321,53.7375 37.2321,52.7375 37,51.5C 36.9428,53.9102 35.7761,55.2435 33.5,55.5C 34.2411,52.5867 34.7411,49.5867 35,46.5C 37.5343,48.5685 38.7009,51.2352 38.5,54.5 Z"/></g>
<g><path style="opacity:1" fill="#f2be8d" d="M 56.5,62.5 C 52.8333,61.1667 49.1667,61.1667 45.5,62.5C 45.5,60.8333 45.5,59.1667 45.5,57.5C 48.408,56.4309 51.408,56.2642 54.5,57C 56.1554,58.4443 56.822,60.2776 56.5,62.5 Z"/></g>
<g><path style="opacity:1" fill="#f0f1f2" d="M 33.5,44.5 C 36.6543,43.0332 39.6543,43.3665 42.5,45.5C 44.1119,49.2809 45.1119,53.2809 45.5,57.5C 45.5,59.1667 45.5,60.8333 45.5,62.5C 46.8333,63.8333 48.1667,65.1667 49.5,66.5C 50.5377,70.458 51.5377,70.458 52.5,66.5C 52.8333,66.5 53.1667,66.5 53.5,66.5C 53.5,68.8333 53.5,71.1667 53.5,73.5C 50.0635,72.2108 47.3968,73.2108 45.5,76.5C 44.1667,76.5 42.8333,76.5 41.5,76.5C 41.6107,75.8826 41.944,75.3826 42.5,75C 40.7536,74.5291 39.087,73.8624 37.5,73C 39.3197,72.7996 40.653,71.9663 41.5,70.5C 36.7324,69.9651 31.8991,70.6318 27,72.5C 25.4675,71.3047 23.9675,71.3047 22.5,72.5C 21.7348,71.3881 20.7348,70.7214 19.5,70.5C 25.2018,68.3155 31.2018,66.8155 37.5,66C 38.7112,65.1072 38.7112,64.2739 37.5,63.5C 36.2638,62.7542 34.9305,62.4208 33.5,62.5C 31.3967,59.6946 28.5633,58.0279 25,57.5C 24.3632,55.6969 23.1965,54.3636 21.5,53.5C 21.8555,52.4777 22.5222,51.811 23.5,51.5C 23.5,52.1667 23.8333,52.5 24.5,52.5C 25.2876,55.6209 27.2876,57.2876 30.5,57.5C 31.7095,57.0679 32.7095,56.4013 33.5,55.5C 35.7761,55.2435 36.9428,53.9102 37,51.5C 37.2321,52.7375 37.7321,53.7375 38.5,54.5C 36.8998,55.6444 35.2331,56.8111 33.5,58C 36.1873,58.0506 38.854,57.5506 41.5,56.5C 41.1789,50.7732 38.5122,46.7732 33.5,44.5 Z"/></g>
<g><path style="opacity:1" fill="#564e41" d="M 24.5,52.5 C 26.5248,54.1964 28.5248,55.863 30.5,57.5C 27.2876,57.2876 25.2876,55.6209 24.5,52.5 Z"/></g>
<g><path style="opacity:1" fill="#3e3435" d="M 78.5,60.5 C 78.1667,60.5 77.8333,60.5 77.5,60.5C 76.448,60.6495 75.448,60.4828 74.5,60C 76.7674,57.7019 79.434,56.2019 82.5,55.5C 86.3962,55.8762 87.3962,57.8762 85.5,61.5C 83.2712,59.447 80.9379,59.1137 78.5,60.5 Z"/></g>
<g><path style="opacity:1" fill="#f3f4f6" d="M 65.5,36.5 C 65.238,37.9778 65.5713,39.3112 66.5,40.5C 70.0217,40.2419 73.5217,39.9086 77,39.5C 79.673,41.5415 79.8397,43.5415 77.5,45.5C 73.3205,44.7736 69.3205,44.7736 65.5,45.5C 62.4283,46.3013 60.7616,48.3013 60.5,51.5C 59.8505,53.4352 59.5172,55.4352 59.5,57.5C 62.2298,57.4734 64.7298,58.1401 67,59.5C 69.6746,59.3427 71.8413,58.3427 73.5,56.5C 74.1667,56.1667 74.8333,55.8333 75.5,55.5C 74.3702,57.3146 73.7036,59.3146 73.5,61.5C 68.6344,61.6283 64.3011,63.1283 60.5,66C 61.2567,67.5122 62.2567,68.8455 63.5,70C 62.8333,70.3333 62.1667,70.6667 61.5,71C 62.745,71.7914 64.0783,72.2914 65.5,72.5C 65.3146,74.1958 64.4813,75.5291 63,76.5C 61.2739,75.4238 59.4406,75.2571 57.5,76C 58.1667,76.3333 58.8333,76.6667 59.5,77C 54.8454,80.4707 50.512,80.3041 46.5,76.5C 48.8906,74.3581 51.5572,74.0248 54.5,75.5C 55.6704,74.3061 55.337,73.6395 53.5,73.5C 53.5,71.1667 53.5,68.8333 53.5,66.5C 54.2112,64.9699 55.2112,63.6366 56.5,62.5C 57.4778,62.189 58.1445,61.5223 58.5,60.5C 56.7006,54.6592 56.0339,48.6592 56.5,42.5C 56.4326,41.0413 56.7659,39.7079 57.5,38.5C 58.1515,37.9094 58.8182,37.2427 59.5,36.5C 60.4656,38.396 60.7989,40.396 60.5,42.5C 61.5,42.5 62.5,42.5 63.5,42.5C 63.528,40.4176 62.8613,38.5843 61.5,37C 62.7932,36.51 64.1266,36.3433 65.5,36.5 Z"/></g>
<g><path style="opacity:1" fill="#eeeeec" d="M 77.5,60.5 C 77.8333,60.5 78.1667,60.5 78.5,60.5C 81.8573,60.2159 84.1906,61.5493 85.5,64.5C 80.8333,64.8333 76.1667,65.1667 71.5,65.5C 72.6085,64.71 73.9419,64.21 75.5,64C 74.1667,63.6667 72.8333,63.3333 71.5,63C 73.0581,62.79 74.3915,62.29 75.5,61.5C 76.4916,61.6716 77.1583,61.3382 77.5,60.5 Z"/></g>
<g><path style="opacity:1" fill="#be8d8e" d="M 56.5,62.5 C 55.2112,63.6366 54.2112,64.9699 53.5,66.5C 53.1667,66.5 52.8333,66.5 52.5,66.5C 51.0689,66.1193 50.2355,65.1193 50,63.5C 49.5172,64.448 49.3505,65.448 49.5,66.5C 48.1667,65.1667 46.8333,63.8333 45.5,62.5C 49.1667,61.1667 52.8333,61.1667 56.5,62.5 Z"/></g>
<g><path style="opacity:1" fill="#bbbab8" d="M 33.5,62.5 C 34.9305,62.4208 36.2638,62.7542 37.5,63.5C 38.7112,64.2739 38.7112,65.1072 37.5,66C 31.2018,66.8155 25.2018,68.3155 19.5,70.5C 18.8333,69.8333 18.1667,69.1667 17.5,68.5C 16.6618,68.1583 16.3284,67.4916 16.5,66.5C 17.2899,65.2058 18.2899,64.0391 19.5,63C 24.1548,62.5008 28.8215,62.3342 33.5,62.5 Z"/></g>
<g><path style="opacity:1" fill="#5a3f3f" d="M 52.5,66.5 C 51.5377,70.458 50.5377,70.458 49.5,66.5C 49.3505,65.448 49.5172,64.448 50,63.5C 50.2355,65.1193 51.0689,66.1193 52.5,66.5 Z"/></g>
<g><path style="opacity:1" fill="#d6d5d3" d="M 73.5,61.5 C 74.1667,61.5 74.8333,61.5 75.5,61.5C 74.3915,62.29 73.0581,62.79 71.5,63C 72.8333,63.3333 74.1667,63.6667 75.5,64C 73.9419,64.21 72.6085,64.71 71.5,65.5C 74.1711,66.2979 77.0044,66.9646 80,67.5C 80.3808,66.5182 81.2141,65.8515 82.5,65.5C 83.1667,65.8333 83.8333,66.1667 84.5,66.5C 84.0142,68.4974 82.8475,69.8307 81,70.5C 76.0237,68.295 70.857,67.4617 65.5,68C 67.0581,68.21 68.3915,68.71 69.5,69.5C 64.4932,69.0098 63.8265,69.8432 67.5,72C 66.9056,72.4643 66.2389,72.631 65.5,72.5C 64.0783,72.2914 62.745,71.7914 61.5,71C 62.1667,70.6667 62.8333,70.3333 63.5,70C 62.2567,68.8455 61.2567,67.5122 60.5,66C 64.3011,63.1283 68.6344,61.6283 73.5,61.5 Z"/></g>
<g><path style="opacity:1" fill="#97897a" d="M 90.5,57.5 C 91.8333,60.5 91.8333,63.5 90.5,66.5C 90.5654,66.0618 90.3988,65.7284 90,65.5C 88.2655,70.0976 85.4322,72.7643 81.5,73.5C 81.5299,72.5028 81.0299,71.8361 80,71.5C 76.5981,70.2741 73.0981,69.6074 69.5,69.5C 68.3915,68.71 67.0581,68.21 65.5,68C 70.857,67.4617 76.0237,68.295 81,70.5C 82.8475,69.8307 84.0142,68.4974 84.5,66.5C 83.8333,66.1667 83.1667,65.8333 82.5,65.5C 81.2141,65.8515 80.3808,66.5182 80,67.5C 77.0044,66.9646 74.1711,66.2979 71.5,65.5C 76.1667,65.1667 80.8333,64.8333 85.5,64.5C 87.1667,64.5 88.8333,64.5 90.5,64.5C 90.5,62.1667 90.5,59.8333 90.5,57.5 Z"/></g>
<g><path style="opacity:1" fill="#eeeff0" d="M 69.5,69.5 C 73.0981,69.6074 76.5981,70.2741 80,71.5C 81.0299,71.8361 81.5299,72.5028 81.5,73.5C 81.5,73.8333 81.5,74.1667 81.5,74.5C 81.1667,74.5 80.8333,74.5 80.5,74.5C 76.9175,72.6396 73.2508,70.9729 69.5,69.5 Z"/></g>
<g><path style="opacity:1" fill="#3b3032" d="M 90.5,66.5 C 89.6371,67.9403 89.6371,69.2736 90.5,70.5C 87.8122,72.5211 85.4789,74.8544 83.5,77.5C 82.8333,77.8333 82.1667,78.1667 81.5,78.5C 81.5,77.1667 81.5,75.8333 81.5,74.5C 81.5,74.1667 81.5,73.8333 81.5,73.5C 85.4322,72.7643 88.2655,70.0976 90,65.5C 90.3988,65.7284 90.5654,66.0618 90.5,66.5 Z"/></g>
<g><path style="opacity:1" fill="#7c7877" d="M 53.5,73.5 C 55.337,73.6395 55.6704,74.3061 54.5,75.5C 51.5572,74.0248 48.8906,74.3581 46.5,76.5C 46.1667,76.5 45.8333,76.5 45.5,76.5C 47.3968,73.2108 50.0635,72.2108 53.5,73.5 Z"/></g>
<g><path style="opacity:1" fill="#f3b7d5" d="M 91.5,55.5 C 93.9416,58.729 96.6082,61.729 99.5,64.5C 99.5,74.1667 99.5,83.8333 99.5,93.5C 96.8516,91.4341 94.5182,88.9341 92.5,86C 89.4191,84.7052 87.0858,82.5386 85.5,79.5C 84.8333,78.8333 84.1667,78.1667 83.5,77.5C 85.4789,74.8544 87.8122,72.5211 90.5,70.5C 89.6371,69.2736 89.6371,67.9403 90.5,66.5C 91.8333,63.5 91.8333,60.5 90.5,57.5C 90.5,57.1667 90.5,56.8333 90.5,56.5C 90.5,55.8333 90.8333,55.5 91.5,55.5 Z"/></g>
<g><path style="opacity:1" fill="#9e8979" d="M 17.5,68.5 C 18.1667,69.1667 18.8333,69.8333 19.5,70.5C 20.7348,70.7214 21.7348,71.3881 22.5,72.5C 23.9675,71.3047 25.4675,71.3047 27,72.5C 31.8991,70.6318 36.7324,69.9651 41.5,70.5C 37.6944,71.4354 34.0277,72.7687 30.5,74.5C 34.4278,78.4689 38.7612,81.9689 43.5,85C 42.2161,85.6838 41.0495,85.5171 40,84.5C 39.51,85.7932 39.3433,87.1266 39.5,88.5C 42.0593,88.1984 44.3926,88.5318 46.5,89.5C 41.6292,89.8078 36.9626,88.9745 32.5,87C 28.7781,84.8104 25.1114,82.6437 21.5,80.5C 19.6593,79.5977 18.326,78.2644 17.5,76.5C 17.4226,75.2502 16.756,74.4169 15.5,74C 16.6341,72.984 16.3008,72.3173 14.5,72C 16.0629,71.2411 17.0629,70.0744 17.5,68.5 Z"/></g>
<g><path style="opacity:1" fill="#42363e" d="M 23.5,76.5 C 25.9514,77.8943 28.6181,78.7276 31.5,79C 29.728,80.4868 27.728,80.8201 25.5,80C 24.0267,79.2904 23.3601,78.1238 23.5,76.5 Z"/></g>
<g><path style="opacity:1" fill="#c8bac5" d="M 69.5,69.5 C 73.2508,70.9729 76.9175,72.6396 80.5,74.5C 77.2496,75.7795 73.2496,75.7795 68.5,74.5C 66.3879,77.0602 64.0546,79.3936 61.5,81.5C 61.631,80.7611 61.4643,80.0944 61,79.5C 58.3581,81.2376 55.5247,82.5709 52.5,83.5C 53.6888,84.4287 55.0222,84.762 56.5,84.5C 56.3893,85.1174 56.056,85.6174 55.5,86C 53.5,86.6667 51.5,86.6667 49.5,86C 46.5975,82.927 43.5975,80.0937 40.5,77.5C 42.4147,77.7845 44.0813,77.4511 45.5,76.5C 45.8333,76.5 46.1667,76.5 46.5,76.5C 50.512,80.3041 54.8454,80.4707 59.5,77C 58.8333,76.6667 58.1667,76.3333 57.5,76C 59.4406,75.2571 61.2739,75.4238 63,76.5C 64.4813,75.5291 65.3146,74.1958 65.5,72.5C 66.2389,72.631 66.9056,72.4643 67.5,72C 63.8265,69.8432 64.4932,69.0098 69.5,69.5 Z"/></g>
<g><path style="opacity:1" fill="#a28b75" d="M 80.5,74.5 C 80.8333,74.5 81.1667,74.5 81.5,74.5C 81.5,75.8333 81.5,77.1667 81.5,78.5C 80.7777,79.5511 79.7777,80.2178 78.5,80.5C 73.2976,83.6794 67.631,85.6794 61.5,86.5C 61.9528,85.5416 62.6195,84.7083 63.5,84C 68.2884,82.4699 72.9551,80.6366 77.5,78.5C 78.9344,77.4116 79.9344,76.0783 80.5,74.5 Z"/></g>
<g><path style="opacity:1" fill="#a79cbb" d="M 83.5,77.5 C 84.1667,78.1667 84.8333,78.8333 85.5,79.5C 84.8333,79.5 84.5,79.8333 84.5,80.5C 83.8826,80.3893 83.3826,80.056 83,79.5C 82.4439,84.3893 79.9439,87.8893 75.5,90C 69.878,92.1516 64.2113,93.8182 58.5,95C 65.4109,90.39 72.0776,85.5567 78.5,80.5C 79.7777,80.2178 80.7777,79.5511 81.5,78.5C 82.1667,78.1667 82.8333,77.8333 83.5,77.5 Z"/></g>
<g><path style="opacity:1" fill="#f4f5f5" d="M 41.5,70.5 C 40.653,71.9663 39.3197,72.7996 37.5,73C 39.087,73.8624 40.7536,74.5291 42.5,75C 41.944,75.3826 41.6107,75.8826 41.5,76.5C 39.9482,75.3782 38.2816,74.8782 36.5,75C 37.4709,76.4813 38.8042,77.3146 40.5,77.5C 43.5975,80.0937 46.5975,82.927 49.5,86C 51.5,86.6667 53.5,86.6667 55.5,86C 56.056,85.6174 56.3893,85.1174 56.5,84.5C 57.9649,83.2632 59.6316,82.2632 61.5,81.5C 64.0546,79.3936 66.3879,77.0602 68.5,74.5C 73.2496,75.7795 77.2496,75.7795 80.5,74.5C 79.9344,76.0783 78.9344,77.4116 77.5,78.5C 72.9551,80.6366 68.2884,82.4699 63.5,84C 62.6195,84.7083 61.9528,85.5416 61.5,86.5C 58.9205,87.2276 56.2538,87.7276 53.5,88C 52.9341,88.9947 52.2674,89.828 51.5,90.5C 51.631,89.7611 51.4643,89.0944 51,88.5C 50.0933,93.0309 48.9266,97.3642 47.5,101.5C 47.8168,97.2984 47.4834,93.2984 46.5,89.5C 44.3926,88.5318 42.0593,88.1984 39.5,88.5C 39.3433,87.1266 39.51,85.7932 40,84.5C 41.0495,85.5171 42.2161,85.6838 43.5,85C 38.7612,81.9689 34.4278,78.4689 30.5,74.5C 34.0277,72.7687 37.6944,71.4354 41.5,70.5 Z"/></g>
<g><path style="opacity:1" fill="#3d3332" d="M 61.5,81.5 C 59.6316,82.2632 57.9649,83.2632 56.5,84.5C 55.0222,84.762 53.6888,84.4287 52.5,83.5C 55.5247,82.5709 58.3581,81.2376 61,79.5C 61.4643,80.0944 61.631,80.7611 61.5,81.5 Z"/></g>
<g><path style="opacity:1" fill="#393634" d="M 41.5,76.5 C 42.8333,76.5 44.1667,76.5 45.5,76.5C 44.0813,77.4511 42.4147,77.7845 40.5,77.5C 38.8042,77.3146 37.4709,76.4813 36.5,75C 38.2816,74.8782 39.9482,75.3782 41.5,76.5 Z"/></g>
<g><path style="opacity:1" fill="#4c354d" d="M 19.5,85.5 C 24.6451,89.7815 28.3118,95.1148 30.5,101.5C 25.1667,101.5 19.8333,101.5 14.5,101.5C 12.712,95.0785 14.3786,89.7451 19.5,85.5 Z"/></g>
<g><path style="opacity:1" fill="#483347" d="M 21.5,80.5 C 25.1114,82.6437 28.7781,84.8104 32.5,87C 36.9626,88.9745 41.6292,89.8078 46.5,89.5C 44.8516,91.4559 44.1849,93.7892 44.5,96.5C 35.7634,94.8884 28.5967,91.2217 23,85.5C 23.1085,84.2312 22.9418,83.2312 22.5,82.5C 22.1667,81.8333 21.8333,81.1667 21.5,80.5 Z"/></g>
<g><path style="opacity:1" fill="#523e4d" d="M 84.5,80.5 C 87.2747,88.5255 91.9414,95.3588 98.5,101C 90.8333,101.667 83.1667,101.667 75.5,101C 73.5055,98.1726 71.1722,95.6726 68.5,93.5C 63.2822,96.5539 57.6156,97.8872 51.5,97.5C 51.5,95.1667 51.5,92.8333 51.5,90.5C 52.2674,89.828 52.9341,88.9947 53.5,88C 56.2538,87.7276 58.9205,87.2276 61.5,86.5C 67.631,85.6794 73.2976,83.6794 78.5,80.5C 72.0776,85.5567 65.4109,90.39 58.5,95C 64.2113,93.8182 69.878,92.1516 75.5,90C 79.9439,87.8893 82.4439,84.3893 83,79.5C 83.3826,80.056 83.8826,80.3893 84.5,80.5 Z"/></g>
<g><path style="opacity:1" fill="#f5f5f7" d="M 85.5,79.5 C 87.0858,82.5386 89.4191,84.7052 92.5,86C 94.5182,88.9341 96.8516,91.4341 99.5,93.5C 99.5,96.8333 99.5,100.167 99.5,103.5C 66.1667,103.5 32.8333,103.5 -0.5,103.5C -0.5,102.833 -0.5,102.167 -0.5,101.5C -0.166667,101.5 0.166667,101.5 0.5,101.5C 5.16667,101.5 9.83333,101.5 14.5,101.5C 19.8333,101.5 25.1667,101.5 30.5,101.5C 32.1477,100.19 33.8144,98.8569 35.5,97.5C 39.0363,100.113 42.5363,100.113 46,97.5C 46.21,99.0581 46.71,100.391 47.5,101.5C 48.9266,97.3642 50.0933,93.0309 51,88.5C 51.4643,89.0944 51.631,89.7611 51.5,90.5C 51.5,92.8333 51.5,95.1667 51.5,97.5C 57.6156,97.8872 63.2822,96.5539 68.5,93.5C 71.1722,95.6726 73.5055,98.1726 75.5,101C 83.1667,101.667 90.8333,101.667 98.5,101C 91.9414,95.3588 87.2747,88.5255 84.5,80.5C 84.5,79.8333 84.8333,79.5 85.5,79.5 Z"/></g>
<g><path style="opacity:1" fill="#a69abb" d="M 22.5,82.5 C 22.9418,83.2312 23.1085,84.2312 23,85.5C 28.5967,91.2217 35.7634,94.8884 44.5,96.5C 44.1849,93.7892 44.8516,91.4559 46.5,89.5C 47.4834,93.2984 47.8168,97.2984 47.5,101.5C 46.71,100.391 46.21,99.0581 46,97.5C 42.5363,100.113 39.0363,100.113 35.5,97.5C 33.8144,98.8569 32.1477,100.19 30.5,101.5C 28.3118,95.1148 24.6451,89.7815 19.5,85.5C 20.1667,84.1667 21.1667,83.1667 22.5,82.5 Z"/></g>
</svg>
